# xmcd
#
# Track frame offsets: 
#        182
#        2472
#        13452
#        22727
#        36325
#        51150
#        60132
#        76345
#        91227
#        105447
#        111790
#        124115
#        137252
#        145717
#        158160
#        167690
#        183002
#        191150
#        217250
#        223992
#        237670
#        254552
#        267265
#
# Disc length: 3614 seconds
#
# Revision: 2
# Processed by: cddbd v1.5.2PL0 Copyright (c) Steve Scherf et al.
# Submitted via: ExactAudioCopy v0.99pb4
#
DISCID=3b0e1c17
DTITLE=Nat King Cole - Nat King Cole Shows Vol. 1
DYEAR=1956
DGENRE=Pop Vocals
TTITLE0=Intro
TTITLE1=Somebody Loves Me
TTITLE2=I've Go Grown Accustomed To Her Face
TTITLE3=Can't You See How Happy We Will Be
TTITLE4=Unforgettable
TTITLE5=This Can't Be Love
TTITLE6=A Beautiful Friendship
TTITLE7=(I'll See You In) Cuba
TTITLE8=Mona Lisa
TTITLE9=Thou Swell
TTITLE10=Night Lights
TTITLE11=Two Different Worlds
TTITLE12=It's Only A Paper Moon
TTITLE13=The Dream I'm Building
TTITLE14=To The Ends Of The Earth
TTITLE15=My Foolish Heart
TTITLE16=Sweet Sue - Just You
TTITLE17=Love Letters
TTITLE18=I'm Shooting High
TTITLE19=Autumn Leaves
TTITLE20=Just One Of Those Things
TTITLE21=There Goes My Heart
TTITLE22=Closing Theme
EXTD=
EXTT0=
EXTT1=
EXTT2=
EXTT3=
EXTT4=
EXTT5=
EXTT6=
EXTT7=
EXTT8=
EXTT9=
EXTT10=
EXTT11=
EXTT12=
EXTT13=
EXTT14=
EXTT15=
EXTT16=
EXTT17=
EXTT18=
EXTT19=
EXTT20=
EXTT21=
EXTT22=
PLAYORDER=
